<svg xmlns="http://www.w3.org/2000/svg" viewBox="0 0 192 192">
  <rect width="192" height="192" rx="32" fill="#0ea5e9"/>
  <path d="M96 32c-8.837 0-16 7.163-16 16v24H56c-8.837 0-16 7.163-16 16v48c0 8.837 7.163 16 16 16h24v24c0 8.837 7.163 16 16 16s16-7.163 16-16v-24h24c8.837 0 16-7.163 16-16v-48c0-8.837-7.163-16-16-16h-24V48c0-8.837-7.163-16-16-16z" fill="white"/>
  <circle cx="80" cy="80" r="8" fill="#0ea5e9"/>
  <circle cx="112" cy="80" r="8" fill="#0ea5e9"/>
  <path d="M72 112h48v16H72z" fill="#0ea5e9"/>
</svg>
